<svg xmlns="http://www.w3.org/2000/svg" width="88" height="88" viewBox="0 0 124 120" fill="#fff" stroke="none" stroke-linecap="round" stroke-linejoin="round"><defs><radialGradient id="kiff_gradient" cx="50.97" cy="7.93" r="131.23" gradientUnits="userSpaceOnUse"><stop offset="0" stop-color="#3ebd44"></stop><stop offset="1" stop-color="#3ebd44"></stop></radialGradient></defs><path d="M65.67 118.07a71 71 0 01-20.46-3.21l-.25-.08c-16.22-4.94-28.25-14.15-35.75-27.36C1.58 74 .19 59.06 5.08 43c5-16.47 14.57-28.31 28.39-35.2a55.52 55.52 0 0125-5.91A68.61 68.61 0 0178.21 5l.23.07c16.66 5.08 28.92 14.36 36.43 27.58 7.62 13.43 8.94 28.59 3.93 45.05-4.88 16-14.37 27.63-28.19 34.53a55.54 55.54 0 01-24.94 5.84z" fill="url(#kiff_gradient)"></path><path d="M27.64 66.43a.08.08 0 00.14 0l9.51-10A3.81 3.81 0 0140 55.31h5.79a1.27 1.27 0 01.9 2.18L38.22 66a.23.23 0 000 .3l9.6 12.6a1.27 1.27 0 01-1 2h-5.48a3.79 3.79 0 01-3-1.5L32.61 72a.23.23 0 00-.34 0l-4.57 4.51a.23.23 0 00-.06.16v2.14A2.15 2.15 0 0125.49 81h-3.72a2.14 2.14 0 01-2.14-2.14v-37a2.15 2.15 0 012.14-2.14h3.72a2.16 2.16 0 012.15 2.14zM59.54 78.81A2.15 2.15 0 0157.4 81h-3.73a2.15 2.15 0 01-2.14-2.14V57.45a2.15 2.15 0 012.14-2.14h3.73a2.15 2.15 0 012.14 2.14zM98 45.8c-2.31 0-4.13 1.32-4.13 4.63v4.8a.09.09 0 00.09.08h6.47a2.14 2.14 0 012.14 2.14v2.47a2.14 2.14 0 01-2.14 2.14H94a.09.09 0 00-.09.09v16.66A2.14 2.14 0 0191.73 81H88a2.14 2.14 0 01-2.14-2.14V62.15a.09.09 0 00-.08-.09H75.44a.09.09 0 00-.08.09v16.66A2.14 2.14 0 0173.22 81H69.5a2.15 2.15 0 01-2.15-2.14V62.15a.08.08 0 00-.08-.09h-1.53a2.15 2.15 0 01-2.14-2.14v-2.47a2.15 2.15 0 012.14-2.14h1.53a.08.08 0 00.08-.08v-5.36c0-7.13 5-10.82 11.39-10.82a13.32 13.32 0 014.11.62 2.14 2.14 0 011.37 2.74l-.76 2.21A2.14 2.14 0 0180.92 46a6.21 6.21 0 00-1.56-.2c-2.12 0-4 1.32-4 4.63v4.8a.09.09 0 00.08.08h10.35a.09.09 0 00.08-.08v-5.36c0-7.13 4.94-10.82 11.38-10.82A15.86 15.86 0 01103 40a2.13 2.13 0 011.2 2.77l-.84 2.16a2.13 2.13 0 01-2.57 1.29A10.76 10.76 0 0098 45.8zM55.81 51.06a5.63 5.63 0 01-1.53-.23 4.44 4.44 0 01-2.67-2 4.1 4.1 0 01-.31-3.32 4.1 4.1 0 014-3.07 5.28 5.28 0 011.48.23 4.46 4.46 0 012.72 2.06 4.24 4.24 0 01-3.67 6.37z"></path></svg>